# xmcd CD database file
#
# Track frame offsets:
#	150
#	10391
#	21215
#	37388
#	56637
#
# Disc length: 1048 seconds
#
# Revision: 0
# Processed by: cddbd v1.5.1PL0 Copyright (c) Steve Scherf et al.
# Submitted via: CDex 1.50beta9
#
DISCID=40041605
DTITLE=Malice in Leatherland - EP 2
DYEAR=2004
DGENRE=Deathrock
TTITLE0=Send More Paramedics
TTITLE1=Suburban Holocaust
TTITLE2=Under the Floorboards
TTITLE3=Grovel
TTITLE4=Happy Death Now
EXTD=YEAR: 2004
EXTT0=
EXTT1=
EXTT2=
EXTT3=
EXTT4=
PLAYORDER=
